<?xml version="1.0" encoding="UTF-8" standalone="no"?>
<!-- Generator: Gravit.io --><svg xmlns="http://www.w3.org/2000/svg" xmlns:xlink="http://www.w3.org/1999/xlink"
  style="isolation:isolate" viewBox="0 0 1920 1080" width="1920pt" height="1080pt">
  <defs>
    <clipPath id="_clipPath_ZeBQ2yRn8fKKw7C8bDbWjE3SWbiwLMaY">
      <rect width="1920" height="1080" />
    </clipPath>
  </defs>
  <g clip-path="url(#_clipPath_ZeBQ2yRn8fKKw7C8bDbWjE3SWbiwLMaY)">
    <circle vector-effect="non-scaling-stroke" cx="577.4999999999999" cy="261.49999999999994" r="65.5" fill="none"
      stroke-width="1" stroke="rgb(0,0,0)" stroke-linejoin="miter" stroke-linecap="square" stroke-miterlimit="3" />
    <path
      d=" M 1398 804 L 1385 803 L 1368 802 L 1345 801 L 1323 802 L 1299 805 L 1263 804 L 1252 804 L 1240 801 L 1227 802 L 1234 806 L 1226 803 L 1220 802 L 1213 799 Q 1202.906 797.625 1202 797 Q 1201.094 796.375 1189 796 L 1186 798 L 1190 799 L 1203 803 Q 1194.469 803.813 1193 804 Q 1191.531 804.188 1182 804 Q 1167.328 801 1166 801 Q 1164.672 801 1151 800 L 1136 797 L 1122 795 Q 1108.688 793.125 1107 793 Q 1105.313 792.875 1092 794 L 1077 793 L 1042 788 L 1018 785 L 1006 784 Q 1005.047 783.984 991 783 Q 976.953 782.016 985 788 L 989 791 L 1026 803 L 1036 803 L 1038 799 L 1056 800 L 1051 800 Q 1041.047 800.438 1040 800 Q 1038.953 799.563 1037 803 L 1027 804 L 1019 805 L 1004 805 L 992 805 Q 979.594 806.344 977 806 Q 974.406 805.656 961 806 Q 959.344 806.625 945 806 Q 930.656 805.375 941 812 L 948 814 L 958 817 L 970 820 L 987 824 L 1013 824 L 1026 824 L 1056 816 L 1042 822 L 1022 826 L 995 827 L 973 829 Q 971.719 829.125 958 831 Q 944.281 832.875 957 838 L 966 840 Q 985.219 843.75 987 844 C 988.781 844.25 1005.891 845.859 1007 846 Q 1008.109 846.141 1026 847 L 1044 845 L 1072 834 L 1057 843 L 1039 847 L 1022 851 L 1013 851 L 1002 853 L 1000 856 L 1002 858 L 1024 862 L 1056 867 L 1092 856 L 1083 862 L 1064 865 L 1056 871 L 1061 876 L 1077 876 L 1092 882 L 1120 882 L 1150 867 L 1136 876 L 1130 884 L 1136 890 L 1159 890 L 1179 884 L 1194 873 L 1187 882 L 1187 887 L 1200 897 L 1216 897 L 1231 890 L 1236 873 L 1236 887 L 1240 897 L 1252 899 Q 1266.375 899.625 1269 899 Q 1271.625 898.375 1269 894 L 1266 873 L 1269 880 L 1272 894 L 1277 901 L 1291 901 Q 1302 901.5 1305 901 Q 1308 900.5 1308 897 Q 1290.375 875.25 1291 873 Q 1291.625 870.75 1308 894 L 1324 904 L 1338 910 Q 1344.75 909.75 1347 910 Q 1349.25 910.25 1347 904 L 1343 899 L 1335 884 L 1343 894 L 1352 901 L 1364 904 L 1368 899 L 1361 894 L 1347 880 L 1343 873 L 1361 890 L 1378 901 L 1393 904 L 1398 899 L 1372 880 L 1386 890 L 1400 897 L 1411 899 L 1416 897 L 1383 876 L 1411 894 Q 1421.25 895.125 1424 894 Q 1426.75 892.875 1432 899 L 1432 894 L 1416 880 L 1440 894 L 1448 894 Q 1442.625 887.25 1440 887 Q 1437.375 886.75 1416 871 L 1450 890 L 1464 899 L 1474 907 L 1489 919 L 1501 928 L 1510 933 L 1515 937 L 1535 951 L 1575 962 L 1585 973 L 1590 978 L 1596 983 L 1607 987 L 1618 990 L 1625 991 L 1630 987 L 1630 981 L 1635 983 Q 1642.875 984.375 1644 984 Q 1645.125 983.625 1651 986 L 1653 983 L 1655 979 L 1671 978 L 1669 972 L 1678 971 Q 1678.688 967.875 1680 967 Q 1681.313 966.125 1696 972 L 1700 975 L 1704 975 L 1703 972 Q 1701.75 969.5 1700 969 Q 1698.25 968.5 1703 969 L 1706 969 L 1711 969 L 1719 969 L 1717 965 L 1714 960 L 1725 960 L 1733 962 L 1742 962 L 1746 960 L 1752 965 L 1762 965 L 1771 962 L 1777 967 L 1782 967 L 1786 965 L 1786 962 L 1790 960 L 1793 960 L 1791 955 L 1783 951 L 1666 910 L 1644 904 L 1637 899 L 1599 880 L 1593 876 L 1601 873 L 1603 868 L 1615 871 L 1627 871 L 1637 871 L 1637 868 L 1644 865 L 1648 867 L 1653 868 L 1655 865 L 1653 860 L 1657 860 L 1666 860 L 1666 858 Q 1669.359 857.883 1671 858 Q 1672.641 858.117 1676 860 L 1680 856 L 1683 860 Q 1688.133 857.461 1689 856 Q 1689.867 854.539 1694 854 L 1700 856 L 1706 853 L 1709 845 L 1716 846 L 1728 847 L 1735 846 L 1757 839 L 1767 840 L 1771 840 Q 1776.445 836.297 1777 836 Q 1777.555 835.703 1779 835 Q 1782.422 833.977 1783 834 Q 1783.578 834.023 1782 831 L 1779 829 L 1777 826 L 1806 827 L 1813 826 L 1815 823 L 1813 821 Q 1808.578 819.422 1809 819 Q 1809.422 818.578 1801 817 L 1822 817 L 1836 815 L 1839 814 Q 1839.281 811.594 1839 811 C 1838.719 810.406 1836.844 809.719 1837 809 Q 1837.156 808.281 1827 807 L 1818 805 L 1870 803 L 1872 798 L 1870 796 L 1859 794 L 1848 791 L 1871 791 L 1878 789 L 1895 785 L 1900 783 L 1900 780 L 1895 779 L 1888 778 L 1874 776 L 1884 776 L 1903 775 L 1918 766 L 1920 761 L 1919 756 L 1918 755 L 1917 755 L 1911 755 L 1894 755 L 1900 755 L 1911 753 L 1918 746 Q 1918.875 741.938 1919 740 Q 1919.125 738.062 1916 739 L 1913 739 L 1896 739 L 1878 740 Q 1862.648 743.273 1878 739 C 1893.352 734.727 1895.414 732.797 1901 731 C 1906.586 729.203 1916.016 722.883 1917 722 C 1917.984 721.117 1918.266 719.508 1918 719 C 1917.734 718.492 1918.195 718.102 1915 717 Q 1911.805 715.898 1887 719 L 1871 721 L 1842 723 Q 1807.945 723.656 1830 723 Q 1852.055 722.344 1864 713 L 1873 705 Q 1876.43 701.578 1876 702 Q 1875.57 702.422 1876 699 L 1875 698 L 1873 698 L 1867 699 L 1829 705 Q 1813.711 707.133 1813 707 Q 1812.289 706.867 1800 710 Q 1792.828 711 1791 711 Q 1789.172 711 1790 709 Q 1790.086 707.344 1796 703 L 1800 698 L 1802 693 L 1796 692 L 1784 695 L 1774 695 L 1760 700 L 1742 708 L 1731 712 L 1717 715 L 1703 720 L 1676 737 L 1657 746 L 1666 739 L 1671 732 L 1668 731 L 1660 735 L 1644 748 L 1651 741 L 1649 739 L 1644 741 L 1627 750 L 1611 757 L 1585 764 L 1544 776 L 1522 783 L 1501 794 L 1492 799 L 1474 802 L 1466 801 L 1457 800 L 1448 801 L 1440 800 L 1435 799 L 1432 796 Q 1425.375 793 1424 793 Q 1422.625 793 1416 793 L 1408 794 L 1403 799 L 1400 803 L 1398 804 Z "
      fill="none" vector-effect="non-scaling-stroke" stroke-width="1" stroke="rgb(0,0,0)" stroke-linejoin="miter"
      stroke-linecap="square" stroke-miterlimit="3" />
  </g>
</svg>