<?xml version="1.0" encoding="UTF-8" standalone="no"?><!-- Generator: Gravit.io --><svg xmlns="http://www.w3.org/2000/svg" xmlns:xlink="http://www.w3.org/1999/xlink" style="isolation:isolate" viewBox="0 0 1920 1080" width="1920pt" height="1080pt"><defs><clipPath id="_clipPath_9eJYZMzFfvIA8zWCLqSKCYgxhhAa1oOp"><rect width="1920" height="1080"/></clipPath></defs><g clip-path="url(#_clipPath_9eJYZMzFfvIA8zWCLqSKCYgxhhAa1oOp)"><path d=" M 1919 586 L 1896 580 L 1859 576 L 1822 580 L 1810 580 L 1813 589 L 1818 601 L 1806 601 L 1796 601 L 1796 607 L 1796 620 L 1779 634 L 1749 640 L 1717 640 L 1683 634 Q 1637.25 625.75 1635 626 Q 1632.75 626.25 1585 626 L 1540 623 L 1535 620 L 1544 617 L 1551 617 L 1555 617 L 1546 613 L 1535 607 L 1531 601 Q 1531 597 1535 597 Q 1539 597 1546 597 Q 1548.875 599.625 1546 597 Q 1543.125 594.375 1531 593 L 1522 589 L 1503 584 L 1484 584 L 1440 584 L 1400 584 Q 1359.667 584.333 1357 584 Q 1354.333 583.667 1332 584 L 1315 582 L 1308 580 Q 1312 574 1315 574 Q 1318 574 1343 569 L 1380 569 L 1393 565 L 1406 559 Q 1414.333 556.667 1411 556 Q 1407.667 555.333 1403 554 L 1395 548 L 1398 543 L 1398 537 L 1406 532 L 1414 525 L 1422 522 L 1425 514 L 1416 510 L 1395 510 L 1352 503 L 1326 497 L 1269 490 L 1255 490 L 1243 487 L 1236 482 L 1234 476 L 1236 471 L 1236 461 L 1240 454 L 1248 448 L 1261 444 L 1269 444 Q 1274 442 1277 442 Q 1280 442 1287 439 L 1289 435 L 1295 435 L 1299 432 L 1308 430 L 1308 426 L 1299 426 L 1289 422 L 1287 420 L 1287 414 L 1287 411 L 1283 409 L 1277 411 L 1269 411 L 1258 409 Q 1258.333 404.333 1255 404 Q 1251.667 403.667 1209 404 L 1170 404 L 1159 404 L 1150 409 L 1133 409 L 1088 409 L 1037 409 Q 1020 406.5 1024 409 Q 1028 411.5 1031 415 L 1034 419 L 1038 419 L 1040 420 L 1043 422 L 1043 410 L 1046 410 L 1048 411 L 1049 414 L 1049 416 L 1049 418 L 1051 419 L 1054 421 Q 1057.344 421.492 1057 422 Q 1056.656 422.508 1058 423 L 1059 423 Q 1058.18 419.742 1059 420 Q 1059.82 420.258 1060 424 Q 1059.727 426.539 1059 426 Q 1058.273 425.461 1052 426 L 1048 426 L 1044 428 Q 1046.344 429.164 1047 429 C 1047.656 428.836 1050.578 431.195 1052 431 C 1053.422 430.805 1056.398 430.492 1056 431 Q 1055.602 431.508 1056 434 L 1055 437 L 1050 437 L 1042 436 L 1037 436 L 1030 437 L 1025 439 L 1015 440 L 979 440 L 966 440 L 954 441 L 934 442 L 920 441 L 908 441 L 867 442 L 833 442 L 814 440 L 797 437 L 792 435 L 796 428 Q 801.437 423.5 803 424 Q 804.563 424.5 814 426 Q 821.75 426.375 823 426 Q 824.25 425.625 827 426 L 825 422 L 822 418 Q 822.938 415.25 825 415 Q 827.063 414.75 831 415 L 837 413 L 842 412 L 848 411 L 856 410 L 862 410 L 866 410 L 874 408 Q 879.5 407.125 880 408 Q 880.5 408.875 885 412 L 889 414 L 901 414 L 906 413 L 913 411 L 917 409 Q 902.25 408.625 901 409 C 899.75 409.375 890 410.125 889 410 Q 888 409.875 883 410 L 880 408 L 874 408 L 866 410 L 862 410 L 856 410 L 848 411 L 842 410 L 839 407 L 843 399 Q 845.75 392.359 847 392 Q 848.25 391.641 855 391 Q 859.547 388.75 861 389 Q 862.453 389.25 866 388 Q 867.078 383.953 868 384 Q 868.922 384.047 873 384 Q 873.031 385.109 874 385 Q 874.969 384.891 880 382 L 871 382 L 857 379 L 842 379 L 829 379 L 797 379 L 771 379 L 715 380 L 672 382 L 646 382 L 639 380 L 632 380 L 587 379 L 587 376 L 592 372 L 597 374 L 603 374 L 607 376 L 613 376 L 617 376 L 619 372 Q 621.5 370 622 372 C 622.5 374 620.25 375.75 622 376 Q 623.75 376.25 627 376 Q 624.75 374.75 627 376 Q 629.25 377.25 634 376 L 639 376 L 643 372 L 639 370 L 639 365 Q 641 361 643 362 Q 645 363 646 365 L 651 362 L 651 356 L 657 353 L 669 350 L 680 341 L 691 331 L 707 321 L 712 315 L 720 313 L 727 311 L 729 308 Q 731.484 306.875 732 307 Q 732.516 307.125 735 308 Q 736.211 308.242 737 308 Q 737.789 307.758 741 307 Q 747.211 307.437 747 307 C 746.789 306.563 761.672 309.57 762 310 Q 762.328 310.43 766 312 L 770 313 L 777 315 L 783 315 Q 791.438 310.516 792 311 Q 792.563 311.484 803 309 L 808 308 L 812 309 L 817 309 L 820 308 L 824 308 L 830 307 L 836 309 L 844 311 L 847 310 L 848 304 L 855 301 L 862 296 L 862 291 L 865 291 L 867 292 L 867 293 Q 867.781 292.703 868 293 L 869 292 L 871 291 L 872 293 L 871 294 Q 870.875 294.547 871 295 Q 871.125 295.453 874 296 L 885 298 L 891 299 L 897 296 L 901 296 L 909 295 L 913 295 Q 918.375 292.719 918 292 Q 917.625 291.281 925 288 L 931 286 L 936 286 L 948 286 L 957 285 L 966 284 L 978 285 L 990 284 Q 991.875 283.063 993 283 C 994.125 282.937 999.406 282.781 1000 283 Q 1000.594 283.219 1002 283 L 1011 280 L 1016 278 L 1020 277 L 1023 277 L 1029 279 L 1042 280 L 1046 277 L 1049 274 L 1050 272 L 1054 272 L 1057 273 L 1059 275 L 1062 276 L 1064 275 L 1071 271 L 1079 268 L 1083 267 L 1087 268 L 1090 269 L 1095 270 L 1098 271 L 1101 271 L 1105 271 L 1107 269 Q 1111.281 268.313 1111 268 Q 1110.719 267.688 1114 267 L 1119 267 L 1128 267 L 1132 265 L 1134 265 Q 1135.82 265.555 1136 265 Q 1136.18 264.445 1140 261 L 1143 261 Q 1149.828 261.422 1150 261 C 1150.172 260.578 1151.438 259.039 1152 259 Q 1152.563 258.961 1160 259 L 1161 260 L 1167 260 Q 1167.477 262.086 1168 262 Q 1168.523 261.914 1170 260 L 1171 258 L 1175 257 Q 1176.547 255.781 1177 256 Q 1177.453 256.219 1185 253 L 1196 249 Q 1197.313 247.516 1198 248 Q 1198.688 248.484 1201 247 L 1203 241 L 1207 240 L 1213 240 L 1219 241 L 1232 243 L 1234 241 L 1239 241 Q 1240.75 240.563 1241 241 Q 1241.25 241.438 1244 239 L 1249 232 L 1253 228 L 1259 225 L 1264 224 L 1270 224 L 1278 225 L 1284 227 L 1306 235 L 1312 238 L 1318 240 L 1321 238 L 1325 238 L 1330 238 L 1336 239 L 1341 238 L 1352 239 L 1356 240 L 1363 240 L 1374 240 L 1385 239 L 1392 238 L 1399 236 L 1406 238 L 1413 242 L 1416 243 L 1428 241 L 1455 235 L 1459 233 L 1465 232 L 1469 232 L 1480 228 L 1489 225 L 1506 220 L 1515 216 L 1522 213 L 1531 212 L 1537 211 L 1556 203 L 1566 200 L 1580 199 L 1584 198 L 1584 196 L 1596 195 L 1607 196 L 1611 194 L 1625 191 L 1635 191 L 1641 182 L 1657 182 L 1680 182 L 1700 176 L 1735 170 L 1757 166 L 1764 158 L 1774 158 Q 1783.667 161.333 1786 161 Q 1788.333 160.667 1810 155 L 1827 155 L 1842 155 L 1871 158 L 1890 163 L 1905 166 L 1913 163 L 1918 163 L 1920 166 L 1919 586 Z " fill="none" vector-effect="non-scaling-stroke" stroke-width="1" stroke="rgb(0,0,0)" stroke-linejoin="miter" stroke-linecap="square" stroke-miterlimit="3"/><path d=" M 1146 520 L 1161 520 L 1177 517 L 1193 514 L 1201 514 L 1203 510 L 1201 506 L 1198 503 L 1194 501 L 1190 499 L 1186 496 L 1186 493 L 1190 493 Q 1194.438 493.125 1193 492 Q 1191.563 490.875 1190 490 L 1193 487 L 1191 482 L 1185 482 L 1177 482 L 1177 484 L 1175 487 L 1171 485 L 1171 480 L 1169 480 L 1170 476 L 1170 474 L 1167 472 L 1165 474 L 1161 472 L 1161 472 L 1159 472 L 1153 471 L 1147 471 L 1146 474 L 1146 476 L 1143 478 L 1140 480 L 1134 480 L 1130 482 L 1130 487 L 1128 490 L 1126 492 L 1124 488 L 1122 482 L 1117 482 L 1108 482 L 1099 482 L 1093 484 L 1088 487 L 1083 488 L 1081 488 Q 1081.625 488.75 1081 490 Q 1080.375 491.25 1081 495 L 1077 497 L 1074 501 L 1072 506 L 1074 510 L 1081 514 L 1090 517 L 1105 517 L 1107 519 L 1112 520 L 1132 520 L 1146 520 Z " fill="none" vector-effect="non-scaling-stroke" stroke-width="1" stroke="rgb(0,0,0)" stroke-linejoin="miter" stroke-linecap="square" stroke-miterlimit="3"/><path d=" M 0 362 L 9 362 L 22 365 L 36 365 L 42 368 L 52 362 L 63 353 Q 79.625 352.375 82 350 Q 84.375 347.625 103 343 L 131 343 L 148 341 L 164 336 Q 168.375 342.5 171 343 Q 173.625 343.5 187 347 L 203 347 L 219 347 Q 236 349.375 238 347 Q 240 344.625 256 336 Q 257 330.875 262 331 Q 267 331.125 278 331 L 285 336 L 312 343 L 333 347 L 342 347 Q 343.25 348.625 346 347 Q 348.75 345.375 367 350 L 376 353 L 386 353 L 403 347 L 413 353 L 435 356 L 456 356 L 468 356 L 484 353 L 495 356 L 499 362 L 478 362 L 449 362 L 405 362 L 386 362 L 333 362 L 285 362 L 223 365 L 203 368 L 203 372 L 209 376 L 223 379 L 209 380 L 189 380 L 178 382 L 160 382 L 178 388 L 184 390 Q 192.5 390.992 193 391 Q 193.5 391.008 200 390 L 201 392 Q 200.07 393.445 199 393 C 197.93 392.555 191 392.602 190 393 C 189 393.398 178.602 395.266 178 395 C 177.398 394.734 161.477 392.883 161 393 C 160.523 393.117 156.914 393.859 159 395 Q 161.086 396.141 167 397 Q 177.547 397.539 178 398 C 178.453 398.461 191.555 398.625 192 399 Q 192.445 399.375 200 401 L 200 402 L 196 403 L 184 403 L 172 402 L 167 401 L 141 399 Q 128.875 398.031 128 398 C 127.125 397.969 109.547 398.172 108 398 Q 106.453 397.828 96 398 L 51 400 L 36 400 L 5 401 L 0 401 L 0 442 L 4 442 L 12 442 L 17 444 L 19 446 Q 18.531 448.563 17 449 Q 15.469 449.438 9 450 Q 2.875 450 2 450 Q 1.125 450 0 450 L 0 606 L 2 607 L 4 604 Q 7.984 603.906 8 605 Q 8.016 606.094 9 610 L 10 615 L 14 615 L 17 612 Q 20.062 609.234 21 609 Q 21.938 608.766 27 608 L 27 601 L 30 598 L 30 601 L 30 604 L 30 608 L 30 612 L 34 615 L 39 613 L 48 617 L 48 623 L 52 623 L 60 623 L 65 629 L 65 636 L 63 642 L 65 645 L 68 645 L 73 645 L 73 648 L 65 651 L 63 654 L 65 657 L 73 654 L 82 657 L 75 662 L 65 662 L 68 665 L 70 665 L 65 671 L 65 675 L 77 675 L 98 675 L 108 675 L 120 679 L 141 682 L 154 682 L 180 688 L 201 692 L 214 692 L 221 688 L 223 679 L 221 671 L 214 669 L 223 669 L 226 662 L 221 657 L 217 645 L 212 640 L 217 636 L 223 636 L 235 638 L 241 631 L 252 631 L 248 640 L 256 640 L 266 640 L 271 631 L 278 631 L 278 640 L 285 640 L 298 642 L 305 645 L 312 642 L 317 648 L 317 654 L 321 654 L 321 645 L 327 651 L 327 657 L 337 657 L 333 662 L 333 669 L 337 662 Q 342.667 666.333 342 669 Q 341.333 671.667 342 679 L 339 686 L 337 692 L 346 692 L 349 692 L 352 688 L 359 690 L 359 695 L 352 700 L 356 705 L 362 708 L 359 712 L 352 713 L 346 713 L 346 715 L 359 719 L 376 720 L 382 720 L 388 715 L 395 715 L 388 712 L 386 708 L 388 705 L 395 700 L 403 705 L 405 705 L 411 700 L 419 698 L 423 700 L 428 699 L 432 705 L 438 712 L 438 713 L 449 719 L 449 725 L 456 725 L 454 717 L 462 720 L 466 715 Q 472.333 714.667 472 717 Q 471.667 719.333 474 721 L 487 721 L 489 725 L 501 723 L 501 728 L 510 728 L 510 735 L 515 735 L 574 741 L 610 748 Q 648.667 755 651 755 Q 653.333 755 665 766 L 691 783 L 700 793 L 697 812 L 688 821 L 675 840 L 680 856 L 685 876 L 680 887 L 672 904 L 659 925 L 651 937 L 639 945 L 639 948 L 643 948 L 672 937 Q 677 931 677 933 Q 677 935 682 933 L 710 925 L 733 937 L 759 955 L 762 957 L 762 969 L 783 983 L 783 973 L 789 973 L 797 978 L 799 978 L 814 983 L 814 973 L 820 975 L 901 1023 L 909 1023 L 920 1015 L 934 1013 Q 938.333 1008 941 1008 Q 943.667 1008 951 1001 L 958 1001 Q 963 994 966 993 Q 969 992 975 991 L 982 993 L 992 993 L 1006 986 L 1006 995 L 1011 995 Q 1012 988.333 1013 986 L 1018 983 L 1020 990 L 1023 995 L 1029 999 L 1034 1004 L 1037 999 L 1040 999 L 1042 1004 L 1048 1008 L 1051 990 L 1052 1004 L 1056 1001 L 1052 1008 L 1062 1018 L 1068 1020 L 1068 1004 L 1064 990 Q 1060.333 980.333 1058 979 Q 1055.667 977.667 1046 975 Q 1031.667 975 1029 975 Q 1026.333 975 1016 975 L 1055 973 L 1060 979 L 1072 971 L 1077 962 L 1074 975 L 1068 981 L 1071 993 L 1074 1004 L 1077 1011 Q 1087.333 1001 1088 999 Q 1088.667 997 1095 990 L 1088 1001 L 1095 1001 L 1108 997 L 1114 997 L 1107 1001 L 1090 1004 L 1083 1008 L 1083 1011 Q 1093.667 1013 1095 1011 Q 1096.333 1009 1101 1008 Q 1100 1012.667 1098 1013 Q 1096 1013.333 1083 1015 L 1077 1015 Q 1076.667 1017.667 1077 1020 Q 1077.333 1022.333 1077 1026 L 1083 1023 L 1090 1018 L 1093 1018 L 1090 1020 L 1087 1023 L 1090 1023 L 1098 1020 L 1105 1023 L 1122 1031 L 1122 1023 L 1117 1018 L 1112 1008 L 1112 1001 L 1114 997 L 1120 990 L 1124 983 L 1122 975 L 1124 962 L 1128 953 L 1126 969 L 1126 975 L 1128 969 L 1132 967 L 1134 962 Q 1133.667 962 1136 960 Q 1138.333 958 1143 951 L 1140 962 Q 1136.667 968.667 1140 967 C 1143.333 965.333 1144.667 961.667 1147 962 Q 1149.333 962.333 1159 962 L 1157 965 Q 1148 965.333 1146 967 Q 1144 968.667 1136 973 L 1136 978 L 1140 975 L 1146 971 L 1153 969 L 1165 967 L 1165 969 Q 1152.667 973.667 1150 975 Q 1147.333 976.333 1140 981 Q 1138 986 1136 986 Q 1134 986 1130 993 L 1130 1001 L 1136 1001 L 1146 995 L 1153 995 L 1161 997 L 1143 1001 L 1132 1008 Q 1127.667 1005.333 1128 1008 Q 1128.333 1010.667 1128 1018 L 1128 1029 L 1128 1031 L 1160 1051 L 1194 1068 L 1216 1080 L 0 1080 L 0 362 Z " fill="none" vector-effect="non-scaling-stroke" stroke-width="1" stroke="rgb(0,0,0)" stroke-linejoin="miter" stroke-linecap="square" stroke-miterlimit="3"/><circle vector-effect="non-scaling-stroke" cx="577.4999999999999" cy="261.49999999999994" r="65.5" fill="none" stroke-width="1" stroke="rgb(0,0,0)" stroke-linejoin="miter" stroke-linecap="square" stroke-miterlimit="3"/><path d=" M 1398 804 L 1385 803 L 1368 802 L 1345 801 L 1323 802 L 1299 805 L 1263 804 L 1252 804 L 1240 801 L 1227 802 L 1234 806 L 1226 803 L 1220 802 L 1213 799 Q 1202.906 797.625 1202 797 Q 1201.094 796.375 1189 796 L 1186 798 L 1190 799 L 1203 803 Q 1194.469 803.813 1193 804 Q 1191.531 804.188 1182 804 Q 1167.328 801 1166 801 Q 1164.672 801 1151 800 L 1136 797 L 1122 795 Q 1108.688 793.125 1107 793 Q 1105.313 792.875 1092 794 L 1077 793 L 1042 788 L 1018 785 L 1006 784 Q 1005.047 783.984 991 783 Q 976.953 782.016 985 788 L 989 791 L 1026 803 L 1036 803 L 1038 799 L 1056 800 L 1051 800 Q 1041.047 800.438 1040 800 Q 1038.953 799.563 1037 803 L 1027 804 L 1019 805 L 1004 805 L 992 805 Q 979.594 806.344 977 806 Q 974.406 805.656 961 806 Q 959.344 806.625 945 806 Q 930.656 805.375 941 812 L 948 814 L 958 817 L 970 820 L 987 824 L 1013 824 L 1026 824 L 1056 816 L 1042 822 L 1022 826 L 995 827 L 973 829 Q 971.719 829.125 958 831 Q 944.281 832.875 957 838 L 966 840 Q 985.219 843.75 987 844 C 988.781 844.25 1005.891 845.859 1007 846 Q 1008.109 846.141 1026 847 L 1044 845 L 1072 834 L 1057 843 L 1039 847 L 1022 851 L 1013 851 L 1002 853 L 1000 856 L 1002 858 L 1024 862 L 1056 867 L 1092 856 L 1083 862 L 1064 865 L 1056 871 L 1061 876 L 1077 876 L 1092 882 L 1120 882 L 1150 867 L 1136 876 L 1130 884 L 1136 890 L 1159 890 L 1179 884 L 1194 873 L 1187 882 L 1187 887 L 1200 897 L 1216 897 L 1231 890 L 1236 873 L 1236 887 L 1240 897 L 1252 899 Q 1266.375 899.625 1269 899 Q 1271.625 898.375 1269 894 L 1266 873 L 1269 880 L 1272 894 L 1277 901 L 1291 901 Q 1302 901.5 1305 901 Q 1308 900.5 1308 897 Q 1290.375 875.25 1291 873 Q 1291.625 870.75 1308 894 L 1324 904 L 1338 910 Q 1344.75 909.75 1347 910 Q 1349.25 910.25 1347 904 L 1343 899 L 1335 884 L 1343 894 L 1352 901 L 1364 904 L 1368 899 L 1361 894 L 1347 880 L 1343 873 L 1361 890 L 1378 901 L 1393 904 L 1398 899 L 1372 880 L 1386 890 L 1400 897 L 1411 899 L 1416 897 L 1383 876 L 1411 894 Q 1421.25 895.125 1424 894 Q 1426.75 892.875 1432 899 L 1432 894 L 1416 880 L 1440 894 L 1448 894 Q 1442.625 887.25 1440 887 Q 1437.375 886.75 1416 871 L 1450 890 L 1464 899 L 1474 907 L 1489 919 L 1501 928 L 1510 933 L 1515 937 L 1535 951 L 1575 962 L 1585 973 L 1590 978 L 1596 983 L 1607 987 L 1618 990 L 1625 991 L 1630 987 L 1630 981 L 1635 983 Q 1642.875 984.375 1644 984 Q 1645.125 983.625 1651 986 L 1653 983 L 1655 979 L 1671 978 L 1669 972 L 1678 971 Q 1678.688 967.875 1680 967 Q 1681.313 966.125 1696 972 L 1700 975 L 1704 975 L 1703 972 Q 1701.75 969.5 1700 969 Q 1698.25 968.5 1703 969 L 1706 969 L 1711 969 L 1719 969 L 1717 965 L 1714 960 L 1725 960 L 1733 962 L 1742 962 L 1746 960 L 1752 965 L 1762 965 L 1771 962 L 1777 967 L 1782 967 L 1786 965 L 1786 962 L 1790 960 L 1793 960 L 1791 955 L 1783 951 L 1666 910 L 1644 904 L 1637 899 L 1599 880 L 1593 876 L 1601 873 L 1603 868 L 1615 871 L 1627 871 L 1637 871 L 1637 868 L 1644 865 L 1648 867 L 1653 868 L 1655 865 L 1653 860 L 1657 860 L 1666 860 L 1666 858 Q 1669.359 857.883 1671 858 Q 1672.641 858.117 1676 860 L 1680 856 L 1683 860 Q 1688.133 857.461 1689 856 Q 1689.867 854.539 1694 854 L 1700 856 L 1706 853 L 1709 845 L 1716 846 L 1728 847 L 1735 846 L 1757 839 L 1767 840 L 1771 840 Q 1776.445 836.297 1777 836 Q 1777.555 835.703 1779 835 Q 1782.422 833.977 1783 834 Q 1783.578 834.023 1782 831 L 1779 829 L 1777 826 L 1806 827 L 1813 826 L 1815 823 L 1813 821 Q 1808.578 819.422 1809 819 Q 1809.422 818.578 1801 817 L 1822 817 L 1836 815 L 1839 814 Q 1839.281 811.594 1839 811 C 1838.719 810.406 1836.844 809.719 1837 809 Q 1837.156 808.281 1827 807 L 1818 805 L 1870 803 L 1872 798 L 1870 796 L 1859 794 L 1848 791 L 1871 791 L 1878 789 L 1895 785 L 1900 783 L 1900 780 L 1895 779 L 1888 778 L 1874 776 L 1884 776 L 1903 775 L 1918 766 L 1920 761 L 1919 756 L 1918 755 L 1917 755 L 1911 755 L 1894 755 L 1900 755 L 1911 753 L 1918 746 Q 1918.875 741.938 1919 740 Q 1919.125 738.062 1916 739 L 1913 739 L 1896 739 L 1878 740 Q 1862.648 743.273 1878 739 C 1893.352 734.727 1895.414 732.797 1901 731 C 1906.586 729.203 1916.016 722.883 1917 722 C 1917.984 721.117 1918.266 719.508 1918 719 C 1917.734 718.492 1918.195 718.102 1915 717 Q 1911.805 715.898 1887 719 L 1871 721 L 1842 723 Q 1807.945 723.656 1830 723 Q 1852.055 722.344 1864 713 L 1873 705 Q 1876.43 701.578 1876 702 Q 1875.57 702.422 1876 699 L 1875 698 L 1873 698 L 1867 699 L 1829 705 Q 1813.711 707.133 1813 707 Q 1812.289 706.867 1800 710 Q 1792.828 711 1791 711 Q 1789.172 711 1790 709 Q 1790.086 707.344 1796 703 L 1800 698 L 1802 693 L 1796 692 L 1784 695 L 1774 695 L 1760 700 L 1742 708 L 1731 712 L 1717 715 L 1703 720 L 1676 737 L 1657 746 L 1666 739 L 1671 732 L 1668 731 L 1660 735 L 1644 748 L 1651 741 L 1649 739 L 1644 741 L 1627 750 L 1611 757 L 1585 764 L 1544 776 L 1522 783 L 1501 794 L 1492 799 L 1474 802 L 1466 801 L 1457 800 L 1448 801 L 1440 800 L 1435 799 L 1432 796 Q 1425.375 793 1424 793 Q 1422.625 793 1416 793 L 1408 794 L 1403 799 L 1400 803 L 1398 804 Z " fill="none" vector-effect="non-scaling-stroke" stroke-width="1" stroke="rgb(0,0,0)" stroke-linejoin="miter" stroke-linecap="square" stroke-miterlimit="3"/></g></svg>